<svg version="1.1" id="Layer_1" xmlns="http://www.w3.org/2000/svg" x="0" y="0" viewBox="0 0 512 512" xml:space="preserve"><path d="M473.668 139.109l-63.386 164.805H153.733L98.973 30.118H0v41.069h65.305l54.759 273.797h318.424L512 153.853zm-282.01 219.565c-33.969 0-61.604 27.634-61.604 61.604s27.636 61.604 61.604 61.604c33.969 0 61.604-27.634 61.604-61.604s-27.636-61.604-61.604-61.604zm0 82.139c-11.323 0-20.535-9.211-20.535-20.535s9.212-20.535 20.535-20.535 20.535 9.211 20.535 20.535-9.212 20.535-20.535 20.535zm177.968-82.139c-33.969 0-61.604 27.634-61.604 61.604s27.636 61.604 61.604 61.604c33.969 0 61.604-27.634 61.604-61.604s-27.636-61.604-61.604-61.604zm0 82.139c-11.323 0-20.535-9.211-20.535-20.535s9.212-20.535 20.535-20.535 20.535 9.211 20.535 20.535-9.212 20.535-20.535 20.535z"/><path d="M376.108 104.419c-4.805-13.676-11.458-25.504-19.96-35.484s-18.609-17.799-30.309-23.471c-11.706-5.666-24.338-8.501-37.887-8.501-13.803 0-26.493 2.835-38.071 8.501-11.586 5.672-21.623 13.491-30.124 23.471-8.501 9.98-15.155 21.808-19.96 35.484-4.805 13.676-7.208 28.646-7.208 44.91 0 16.263 2.403 31.233 7.208 44.909 4.805 13.676 11.458 25.504 19.96 35.484 8.501 9.979 18.539 17.742 30.124 23.286 11.579 5.544 24.268 8.317 38.071 8.317 13.549 0 26.18-2.772 37.887-8.317 11.701-5.544 21.808-13.307 30.309-23.286 8.501-9.98 15.155-21.808 19.96-35.484 4.805-13.676 7.208-28.646 7.208-44.91-.001-16.263-2.403-31.233-7.208-44.909zm-46.019 71.892c-2.218 8.132-5.36 15.155-9.425 21.069s-8.871 10.475-14.415 13.676c-5.544 3.205-11.643 4.805-18.296 4.805-6.902 0-13.122-1.6-18.666-4.805-5.544-3.199-10.349-7.762-14.415-13.676-4.066-5.914-7.208-12.937-9.425-21.069s-3.327-17.125-3.327-26.983c0-9.853 1.109-18.908 3.327-27.167 2.218-8.252 5.36-15.339 9.425-21.253 4.066-5.914 8.871-10.47 14.415-13.676 5.544-3.199 11.765-4.805 18.666-4.805 6.653 0 12.752 1.606 18.296 4.805 5.544 3.206 10.35 7.762 14.415 13.676 4.066 5.914 7.208 13 9.425 21.253 2.218 8.259 3.327 17.315 3.327 27.167 0 9.859-1.109 18.852-3.327 26.983z"/></svg>